<svg viewBox="0 0 26 26" xmlns="http://www.w3.org/2000/svg" xmlns:xlink="http://www.w3.org/1999/xlink" width="26.000000" height="26.000000" fill="none">
	<defs>
		<linearGradient id="paint_linear_13" x1="26.7429981" x2="2.06257248" y1="0.03125" y2="25.8564873" gradientUnits="userSpaceOnUse">
			<stop stop-color="rgb(58.5703,118.292,143.438)" offset="0.25" stop-opacity="1" />
			<stop stop-color="rgb(61.625,197.704,255)" offset="0.536458313" stop-opacity="1" />
			<stop stop-color="rgb(58.5703,118.292,143.438)" offset="0.817708313" stop-opacity="1" />
		</linearGradient>
	</defs>
	<rect id="icons8_youtube_1 1" width="26.000000" height="26.000000" x="0.000000" y="0.000000" fill="rgb(255,255,255)" fill-opacity="0" />
	<path id="Vector" d="M6.3127 0.03125L8.09395 5.875L8.09395 9.6875L9.59395 9.6875L9.59395 5.6875L11.3127 0.03125L9.8127 0.03125L8.8752 3.875L8.78145 3.875L7.8127 0.03125L6.3127 0.03125ZM13.2189 2.375C12.6174 2.375 12.1369 2.54688 11.7814 2.875C11.426 3.19922 11.2502 3.63672 11.2502 4.1875L11.2502 7.875C11.2502 8.48047 11.4338 8.98828 11.7814 9.34375C12.133 9.70312 12.5744 9.875 13.1564 9.875C13.758 9.875 14.2502 9.69141 14.5939 9.34375C14.9377 8.99609 15.0939 8.51562 15.0939 7.90625L15.0939 4.21875C15.0939 3.67578 14.9143 3.25 14.5627 2.90625C14.215 2.55859 13.7697 2.375 13.2189 2.375ZM16.2189 2.5625L16.2189 8.53125C16.2189 8.95703 16.3127 9.25781 16.4689 9.46875C16.6252 9.67969 16.8518 9.78125 17.1564 9.78125C17.4025 9.78125 17.6447 9.71094 17.9064 9.5625C18.1721 9.41016 18.4455 9.19531 18.6877 8.90625L18.6877 9.6875L20.0002 9.6875L20.0002 2.5625L18.6877 2.5625L18.6877 7.96875C18.5627 8.12109 18.4299 8.24609 18.2814 8.34375C18.133 8.44531 18.0041 8.5 17.9064 8.5C17.7854 8.5 17.6799 8.48047 17.6252 8.40625C17.5666 8.33203 17.5627 8.19531 17.5627 8.03125L17.5627 2.5625L16.2189 2.5625ZM13.1564 3.625C13.3322 3.625 13.4885 3.65625 13.5939 3.75C13.7033 3.84766 13.7502 3.97266 13.7502 4.125L13.7502 8.03125C13.7502 8.22266 13.6994 8.36328 13.5939 8.46875C13.4885 8.57812 13.3361 8.625 13.1564 8.625C12.9807 8.625 12.8439 8.57422 12.7502 8.46875C12.6525 8.36328 12.6252 8.22656 12.6252 8.03125L12.6252 4.125C12.6252 3.97266 12.6799 3.84766 12.7814 3.75C12.883 3.65625 12.9963 3.625 13.1564 3.625ZM13.0002 11.1562C10.4064 11.1523 7.86348 11.1758 5.3752 11.2812C3.63691 11.2812 2.21895 12.6836 2.21895 14.4062C2.11348 15.7695 2.05879 17.1367 2.0627 18.5C2.05879 19.8633 2.11348 21.2305 2.21895 22.5938C2.21895 24.3164 3.63691 25.7188 5.3752 25.7188C7.86348 25.8203 10.4064 25.8477 13.0002 25.8438C15.5979 25.8516 18.1408 25.8203 20.6252 25.7188C22.3635 25.7188 23.7814 24.3164 23.7814 22.5938C23.8869 21.2305 23.9416 19.8633 23.9377 18.5C23.9455 17.1367 23.8869 15.7695 23.7814 14.4062C23.7814 12.6836 22.3635 11.2812 20.6252 11.2812C18.1408 11.1758 15.5979 11.1523 13.0002 11.1562ZM3.7502 13.375L8.34395 13.375C8.42598 13.375 8.5002 13.4492 8.5002 13.5312L8.5002 14.9375C8.5002 15.0195 8.42598 15.0938 8.34395 15.0938L6.9377 15.0938L6.9377 23.1875C6.9377 23.2695 6.89473 23.3438 6.8127 23.3438L5.3127 23.3438C5.23066 23.3438 5.15645 23.2695 5.15645 23.1875L5.15645 15.0938L3.7502 15.0938C3.66816 15.0938 3.6252 15.0195 3.6252 14.9375L3.6252 13.5312C3.6252 13.4492 3.66816 13.375 3.7502 13.375ZM13.4064 13.375L14.7502 13.375C14.8322 13.375 14.9064 13.4492 14.9064 13.5312L14.9064 16.25C15.0158 16.1484 15.133 16.0664 15.2502 16C15.4768 15.875 15.7072 15.8125 15.9377 15.8125C16.4064 15.8125 16.7502 16 17.0002 16.3438C17.2385 16.6758 17.3752 17.1406 17.3752 17.75L17.3752 21.7188C17.3752 22.2578 17.2619 22.6758 17.0314 22.9688C16.7932 23.2734 16.4377 23.4375 16.0002 23.4375C15.7229 23.4375 15.4768 23.3633 15.2502 23.25C15.1291 23.1875 15.0158 23.1289 14.9064 23.0312L14.9064 23.1875C14.9064 23.2695 14.8322 23.3438 14.7502 23.3438L13.4064 23.3438C13.3244 23.3438 13.2502 23.2695 13.2502 23.1875L13.2502 13.5312C13.2502 13.4492 13.3244 13.375 13.4064 13.375ZM20.2189 15.7188C20.8674 15.7188 21.3986 15.9219 21.7502 16.3125C22.1018 16.7031 22.2814 17.2578 22.2814 17.9688L22.2814 19.8125C22.2814 19.8945 22.2072 19.9375 22.1252 19.9375L19.7502 19.9375L19.7502 21.1562C19.7502 21.5938 19.7971 21.7656 19.8439 21.8438C19.883 21.9062 19.9494 22 20.1564 22C20.3244 22 20.4416 21.9531 20.5002 21.875C20.5275 21.832 20.5939 21.6758 20.5939 21.1562L20.5939 20.6562C20.5939 20.5742 20.6682 20.5 20.7502 20.5L22.1252 20.5C22.2072 20.5 22.2814 20.5742 22.2814 20.6562L22.2814 21.1875C22.2814 21.957 22.0744 22.543 21.7189 22.9375C21.3635 23.3359 20.8283 23.5312 20.1252 23.5312C19.4885 23.5312 18.9924 23.332 18.6252 22.9062C18.2619 22.4883 18.0627 21.9102 18.0627 21.1875L18.0627 17.9688C18.0627 17.3125 18.2541 16.793 18.6564 16.375C19.0588 15.957 19.5861 15.7188 20.2189 15.7188ZM8.34395 15.9062L9.65645 15.9062C9.73848 15.9062 9.8127 15.9805 9.8127 16.0625L9.8127 21.5312C9.8127 21.7109 9.82442 21.7852 9.84395 21.8125C9.85176 21.8242 9.88692 21.875 10.0002 21.875C10.0393 21.875 10.1252 21.8594 10.2814 21.75C10.4104 21.6641 10.5236 21.5586 10.6252 21.4375L10.6252 16.0625C10.6252 15.9805 10.6994 15.9062 10.7814 15.9062L12.1252 15.9062C12.2072 15.9062 12.2502 15.9805 12.2502 16.0625L12.2502 23.1875C12.2502 23.2695 12.2072 23.3438 12.1252 23.3438L10.7814 23.3438C10.6994 23.3438 10.6252 23.2695 10.6252 23.1875L10.6252 22.7812C10.4494 22.9531 10.2775 23.082 10.0939 23.1875C9.80488 23.3516 9.53145 23.4375 9.2502 23.4375C8.89473 23.4375 8.62129 23.3164 8.4377 23.0625C8.26192 22.8242 8.1877 22.4844 8.1877 22.0312L8.1877 16.0625C8.1877 15.9805 8.26192 15.9062 8.34395 15.9062ZM15.2502 17.25C15.1994 17.2578 15.1486 17.2852 15.0939 17.3125C15.0314 17.3438 14.9689 17.4023 14.9064 17.4688L14.9064 21.7812C14.9846 21.8633 15.051 21.9336 15.1252 21.9688C15.2072 22.0078 15.2854 22.0312 15.3752 22.0312C15.5432 22.0312 15.6096 21.9609 15.6252 21.9375C15.6643 21.8867 15.6877 21.7695 15.6877 21.5312L15.6877 17.8438C15.6877 17.6406 15.6682 17.4727 15.5939 17.375C15.5197 17.2773 15.4025 17.2227 15.2502 17.25ZM20.1877 17.2812C20.0275 17.2812 19.9104 17.3164 19.8439 17.4062C19.7971 17.4727 19.7502 17.6367 19.7502 17.9688L19.7502 18.5312L20.5939 18.5312L20.5939 17.9688C20.5939 17.6406 20.551 17.4805 20.5002 17.4062C20.4377 17.3203 20.34 17.2812 20.1877 17.2812Z" fill="url(#paint_linear_13)" fill-rule="nonzero" />
</svg>
