<svg viewBox="0 0 27 30" xmlns="http://www.w3.org/2000/svg" xmlns:xlink="http://www.w3.org/1999/xlink" width="27.000000" height="30.000000" fill="none" customFrame="#000000">
	<g id="Сочетание 1">
		<circle id="Ellipse 6" cx="13.5" cy="13.5" r="13.5" fill="rgb(74,188,236)" />
		<path id="5" d="M16.6226 15.243C16.6226 16.3817 16.2493 17.259 15.5026 17.875C14.7559 18.4817 13.8553 18.785 12.8006 18.785C11.8859 18.785 11.0879 18.561 10.4066 18.113C9.72528 17.6557 9.26794 17.0397 9.03461 16.265L11.1766 15.607C11.2793 15.9617 11.4753 16.251 11.7646 16.475C12.0633 16.6897 12.3993 16.797 12.7726 16.797C13.1926 16.797 13.5426 16.671 13.8226 16.419C14.1119 16.167 14.2566 15.8123 14.2566 15.355C14.2566 14.8137 14.0606 14.4263 13.6686 14.193C13.2766 13.9597 12.7959 13.843 12.2266 13.843C11.4146 13.843 10.6073 13.9877 9.80461 14.277L10.0426 8.607L16.1186 8.607L16.1186 10.623L12.1286 10.623L12.0446 12.191C12.3153 12.1257 12.6466 12.093 13.0386 12.093C14.0839 12.093 14.9426 12.3683 15.6146 12.919C16.2866 13.4603 16.6226 14.235 16.6226 15.243Z" fill="rgb(8.14583,38.3775,42.5)" fill-rule="nonzero" />
	</g>
</svg>
