<svg viewBox="0 0 27 30" xmlns="http://www.w3.org/2000/svg" xmlns:xlink="http://www.w3.org/1999/xlink" width="27.000000" height="30.000000" fill="none" customFrame="#000000">
	<g id="Сочетание 1">
		<circle id="Ellipse 6" cx="13.5" cy="13.5" r="13.5" fill="rgb(74,188,236)" />
		<path id="9" d="M16.9026 11.883C16.9026 12.8257 16.5339 13.8477 15.7966 14.949L13.4026 18.519L10.5606 18.519L13.0246 15.103L13.0526 15.061C12.8473 15.1357 12.6139 15.173 12.3526 15.173C11.4566 15.173 10.6866 14.8697 10.0426 14.263C9.40794 13.6563 9.09061 12.8817 9.09061 11.939C9.09061 10.847 9.46394 9.97433 10.2106 9.321C10.9573 8.66767 11.8859 8.341 12.9966 8.341C14.1073 8.341 15.0359 8.66767 15.7826 9.321C16.5293 9.965 16.9026 10.819 16.9026 11.883ZM14.5506 11.855C14.5506 11.4163 14.4059 11.043 14.1166 10.735C13.8366 10.427 13.4679 10.273 13.0106 10.273C12.5439 10.273 12.1659 10.4223 11.8766 10.721C11.5873 11.0197 11.4426 11.4023 11.4426 11.869C11.4426 12.317 11.5826 12.6903 11.8626 12.989C12.1519 13.2783 12.5253 13.423 12.9826 13.423C13.4493 13.423 13.8273 13.2783 14.1166 12.989C14.4059 12.6997 14.5506 12.3217 14.5506 11.855Z" fill="rgb(8.14583,38.3775,42.5)" fill-rule="nonzero" />
	</g>
</svg>
