<svg viewBox="0 0 27 30" xmlns="http://www.w3.org/2000/svg" xmlns:xlink="http://www.w3.org/1999/xlink" width="27.000000" height="30.000000" fill="none" customFrame="#000000">
	<g id="Сочетание 1">
		<circle id="Ellipse 6" cx="13.5" cy="13.5" r="13.5" fill="rgb(74,188,236)" />
		<path id="10" d="M10.2632 18.519L7.91122 18.519L7.91122 11.239L6.06322 12.667L4.84522 11.001L8.10722 8.607L10.2632 8.607L10.2632 18.519ZM21.176 11.533C21.3253 12.1397 21.4 12.807 21.4 13.535C21.4 14.263 21.3253 14.935 21.176 15.551C21.036 16.167 20.8167 16.7223 20.518 17.217C20.2287 17.7023 19.8273 18.085 19.314 18.365C18.81 18.645 18.2173 18.785 17.536 18.785C16.64 18.785 15.8887 18.5377 15.282 18.043C14.6847 17.5483 14.26 16.923 14.008 16.167C13.7653 15.4017 13.644 14.5243 13.644 13.535C13.644 12.807 13.714 12.1397 13.854 11.533C14.0033 10.9263 14.2273 10.3803 14.526 9.895C14.8247 9.40967 15.2307 9.03167 15.744 8.761C16.2573 8.481 16.8547 8.341 17.536 8.341C18.2173 8.341 18.81 8.481 19.314 8.761C19.8273 9.03167 20.2287 9.40967 20.518 9.895C20.8167 10.3803 21.036 10.9263 21.176 11.533ZM18.992 13.535C18.992 13.171 18.9733 12.8257 18.936 12.499C18.8987 12.163 18.8287 11.8223 18.726 11.477C18.6327 11.1317 18.4833 10.8563 18.278 10.651C18.0727 10.4363 17.8253 10.329 17.536 10.329C17.2467 10.329 16.9947 10.4363 16.78 10.651C16.5747 10.8563 16.4207 11.1317 16.318 11.477C16.2247 11.8223 16.1547 12.163 16.108 12.499C16.0707 12.8257 16.052 13.171 16.052 13.535C16.052 13.899 16.0707 14.249 16.108 14.585C16.1547 14.921 16.2247 15.2663 16.318 15.621C16.4207 15.9663 16.5747 16.2463 16.78 16.461C16.9853 16.6663 17.2373 16.769 17.536 16.769C17.8253 16.769 18.0727 16.6663 18.278 16.461C18.4833 16.2463 18.6327 15.9663 18.726 15.621C18.8287 15.2663 18.8987 14.9257 18.936 14.599C18.9733 14.263 18.992 13.9083 18.992 13.535Z" fill="rgb(8.14583,38.3775,42.5)" fill-rule="nonzero" />
	</g>
</svg>
