<svg viewBox="0 0 27 30" xmlns="http://www.w3.org/2000/svg" xmlns:xlink="http://www.w3.org/1999/xlink" width="27.000000" height="30.000000" fill="none" customFrame="#000000">
	<g id="Сочетание 1">
		<circle id="Ellipse 6" cx="13.5" cy="13.5" r="13.5" fill="rgb(74,188,236)" />
		<path id="8" d="M16.7206 15.691C16.7206 16.6803 16.3613 17.4457 15.6426 17.987C14.9239 18.519 14.0419 18.785 12.9966 18.785C11.9419 18.785 11.0553 18.519 10.3366 17.987C9.62728 17.455 9.27261 16.6943 9.27261 15.705C9.27261 15.1263 9.44061 14.627 9.77661 14.207C10.1126 13.787 10.5373 13.4977 11.0506 13.339L11.0506 13.311C10.6026 13.143 10.2386 12.877 9.95861 12.513C9.67861 12.1397 9.53861 11.6917 9.53861 11.169C9.53861 10.2917 9.86994 9.601 10.5326 9.097C11.2046 8.593 12.0259 8.341 12.9966 8.341C13.9673 8.341 14.7839 8.58833 15.4466 9.083C16.1186 9.56833 16.4546 10.2497 16.4546 11.127C16.4546 11.659 16.3146 12.1163 16.0346 12.499C15.7639 12.8817 15.3999 13.1477 14.9426 13.297L14.9426 13.339C15.4559 13.479 15.8806 13.7637 16.2166 14.193C16.5526 14.6223 16.7206 15.1217 16.7206 15.691ZM13.8366 12.121C14.0699 11.8877 14.1866 11.6123 14.1866 11.295C14.1866 10.9777 14.0699 10.7117 13.8366 10.497C13.6033 10.273 13.3233 10.161 12.9966 10.161C12.6513 10.161 12.3666 10.2683 12.1426 10.483C11.9279 10.6977 11.8206 10.9683 11.8206 11.295C11.8206 11.6217 11.9279 11.9017 12.1426 12.135C12.3573 12.359 12.6419 12.471 12.9966 12.471C13.3326 12.471 13.6126 12.3543 13.8366 12.121ZM14.3686 15.607C14.3686 15.2243 14.2379 14.907 13.9766 14.655C13.7153 14.3937 13.3886 14.263 12.9966 14.263C12.5953 14.263 12.2639 14.3937 12.0026 14.655C11.7413 14.907 11.6106 15.2243 11.6106 15.607C11.6106 15.999 11.7366 16.3163 11.9886 16.559C12.2499 16.8017 12.5859 16.923 12.9966 16.923C13.4073 16.923 13.7386 16.8063 13.9906 16.573C14.2426 16.3303 14.3686 16.0083 14.3686 15.607Z" fill="rgb(8.14583,38.3775,42.5)" fill-rule="nonzero" />
	</g>
</svg>
