<svg viewBox="0 0 27 30" xmlns="http://www.w3.org/2000/svg" xmlns:xlink="http://www.w3.org/1999/xlink" width="27.000000" height="30.000000" fill="none" customFrame="#000000">
	<g id="Сочетание 1">
		<circle id="Ellipse 6" cx="13.5" cy="13.5" r="13.5" fill="rgb(74,188,236)" />
		<path id="3" d="M16.6366 15.635C16.6366 16.3257 16.4453 16.9183 16.0626 17.413C15.6893 17.8983 15.2273 18.2483 14.6766 18.463C14.1259 18.6777 13.5333 18.785 12.8986 18.785C11.9373 18.785 11.0973 18.5657 10.3786 18.127C9.65994 17.6883 9.17461 17.0303 8.92261 16.153L11.1066 15.579C11.1999 15.9243 11.3959 16.2183 11.6946 16.461C11.9933 16.6943 12.3573 16.811 12.7866 16.811C13.1693 16.811 13.5053 16.7083 13.7946 16.503C14.0839 16.2977 14.2286 15.9803 14.2286 15.551C14.2286 15.0843 14.0326 14.753 13.6406 14.557C13.2579 14.3517 12.7819 14.249 12.2126 14.249L11.5826 14.249L11.5826 12.527L12.2686 12.527C13.4259 12.527 14.0046 12.135 14.0046 11.351C14.0046 11.015 13.8833 10.749 13.6406 10.553C13.3979 10.357 13.1039 10.259 12.7586 10.259C12.4226 10.259 12.1286 10.3617 11.8766 10.567C11.6339 10.763 11.4753 11.029 11.4006 11.365L9.21661 10.861C9.44994 10.0583 9.90728 9.43767 10.5886 8.999C11.2699 8.56033 12.0446 8.341 12.9126 8.341C13.8646 8.341 14.6813 8.58367 15.3626 9.069C16.0533 9.55433 16.3986 10.245 16.3986 11.141C16.3986 11.673 16.2446 12.135 15.9366 12.527C15.6286 12.9097 15.2273 13.1663 14.7326 13.297L14.7326 13.339C15.2926 13.4697 15.7499 13.7497 16.1046 14.179C16.4593 14.599 16.6366 15.0843 16.6366 15.635Z" fill="rgb(8.14583,38.3775,42.5)" fill-rule="nonzero" />
	</g>
</svg>
