<svg viewBox="0 0 27 30" xmlns="http://www.w3.org/2000/svg" xmlns:xlink="http://www.w3.org/1999/xlink" width="27.000000" height="30.000000" fill="none" customFrame="#000000">
	<g id="Сочетание 1">
		<circle id="Ellipse 6" cx="13.5" cy="13.5" r="13.5" fill="rgb(74,188,236)" />
		<path id="6" d="M16.8886 15.187C16.8886 16.279 16.5153 17.1517 15.7686 17.805C15.0219 18.4583 14.0933 18.785 12.9826 18.785C11.8719 18.785 10.9433 18.463 10.1966 17.819C9.44994 17.1657 9.07661 16.307 9.07661 15.243C9.07661 14.3003 9.44528 13.2783 10.1826 12.177L12.5766 8.607L15.4186 8.607L12.9826 11.995L12.9406 12.065C13.1366 11.9903 13.3699 11.953 13.6406 11.953C14.5366 11.953 15.3019 12.2563 15.9366 12.863C16.5713 13.4697 16.8886 14.2443 16.8886 15.187ZM14.5366 15.243C14.5366 14.795 14.3919 14.4263 14.1026 14.137C13.8226 13.8383 13.4539 13.689 12.9966 13.689C12.5393 13.689 12.1613 13.8383 11.8626 14.137C11.5733 14.4263 11.4286 14.7997 11.4286 15.257C11.4286 15.6957 11.5733 16.069 11.8626 16.377C12.1519 16.6757 12.5253 16.825 12.9826 16.825C13.4399 16.825 13.8133 16.6803 14.1026 16.391C14.3919 16.0923 14.5366 15.7097 14.5366 15.243Z" fill="rgb(8.14583,38.3775,42.5)" fill-rule="nonzero" />
	</g>
</svg>
